<!--?xml version="1.0" encoding="utf-8"?-->
<!-- Generator: Adobe Illustrator 18.1.1, SVG Export Plug-In . SVG Version: 6.00 Build 0)  -->

<svg version="1.1" id="_x32_" xmlns="http://www.w3.org/2000/svg" xmlns:xlink="http://www.w3.org/1999/xlink" x="0px" y="0px" viewBox="0 0 512 512" style="width: 256px; height: 256px; opacity: 1;" xml:space="preserve">
<style type="text/css">
	.st0{fill:#4B4B4B;}
</style>
<g>
	<path class="st0" d="M436.304,329.338h-56l-0.46-9.016l-1.289-25.629l-31.871-19.116l1.515,30.092H131.036l10.922-216.9H337.27
		l3.377,67.043c3.316,1.312,6.49,2.986,9.362,5.134l22.668,17.058l-6.053-120.111H262.771V0h-46.314v57.892H112.605L98.923,329.338
		H33.071v46.314h76.285L66.789,512h48.47l42.56-136.349h58.639v105.488h46.314V375.651h58.639L363.969,512h48.47l-42.567-136.349
		h76.285v-41.225c-2.246-0.859-4.44-1.84-6.512-3.083L436.304,329.338z" style="fill: rgb(5, 130, 202);"></path>
	<path class="st0" d="M306.19,169.493c1.108-13.659-5.239-26.881-16.576-34.509c-12.942-8.714-29.866-12.513-47.655-10.704
		c-16.946,1.711-31.961,8.322-41.226,18.091l-1.983,2.111l2.571,1.342c0,0,2.54,1.44,7.372,6.302
		c5.843,5.895,10.373,12.603,14.767,19.101c6.43,9.498,13.094,19.328,23.843,26.58c11.337,7.643,25.968,8.548,38.203,2.412
		l0.505-0.272l20.142-29.896L306.19,169.493z M279.634,192.514c-8.805,3.755-19.139,2.79-27.054-2.547
		c-3.649-2.458-6.762-5.292-9.581-8.383c-6.378-8.79-0.128-12,3.543-10.87c6.422,1.968,10.606,3.633,12.264,0.769
		c2.759-4.749-3.912-7.922-6.634-11.088c-2.721-3.143-1.372-9.747,8.337-5.835c7.734,3.098,13.802-2.148,6.732-8.691
		c-7.063-6.521-1.138-10.735,5.413-8.684c0.587,0.173,1.146,0.324,1.68,0.452c3.588,1.394,6.958,3.136,10.003,5.179
		c7.907,5.329,12.695,14.548,12.521,24.114L279.634,192.514z" style="fill: rgb(5, 130, 202);"></path>
	<path class="st0" d="M306.04,224.174l19.878,11.94l28.734-42.696l-18.513-13.93c-4.093-3.06-9.264-4.326-14.315-3.482
		c-5.036,0.859-9.52,3.738-12.377,7.975l-9.288,13.795c-2.857,4.236-3.836,9.467-2.736,14.458
		C298.539,217.224,301.652,221.544,306.04,224.174z" style="fill: rgb(5, 130, 202);"></path>
	<path class="st0" d="M471.733,281.524l-110.501-83.145l-28.26,41.972l118.573,71.129c8.224,4.93,18.876,2.564,24.235-5.382
		l0.068-0.106C481.209,298.047,479.407,287.283,471.733,281.524z" style="fill: rgb(5, 130, 202);"></path>
</g>
</svg>
