<!--?xml version="1.0" encoding="utf-8"?-->
<!-- Generator: Adobe Illustrator 15.1.0, SVG Export Plug-In . SVG Version: 6.00 Build 0)  -->

<svg version="1.1" id="_x32_" xmlns="http://www.w3.org/2000/svg" xmlns:xlink="http://www.w3.org/1999/xlink" x="0px" y="0px" width="512px" height="512px" viewBox="0 0 512 512" style="width: 16px; height: 16px; opacity: 1;" xml:space="preserve">
<g>
	<path class="st0" d="M358.91 7.86C351.1 0.05 338.43 0.05 330.62 7.86C315.58 22.9 240.38 98.09 105.03 233.44L278.56 406.97C413.91 271.62 489.1 196.42 504.14 181.38C511.95 173.57 511.95 160.91 504.14 153.09C475.09 124.04 373.43 22.38 358.91 7.86Z" style="fill: rgb(92, 85, 80);"></path>
	<path class="st0" d="M7.48 330.39C-0.34 338.2 -0.34 350.87 7.48 358.68C22 373.2 138.19 489.39 152.71 503.92C160.52 511.73 173.19 511.73 181 503.92C185.08 499.84 205.45 479.47 242.11 442.8L68.59 269.28C31.92 305.95 11.55 326.32 7.48 330.39Z" style="fill: rgb(92, 85, 80);"></path>
</g>
</svg>
