<!--?xml version="1.0" encoding="utf-8"?-->
<!-- Generator: Adobe Illustrator 18.1.1, SVG Export Plug-In . SVG Version: 6.00 Build 0)  -->

<svg version="1.1" id="_x32_" xmlns="http://www.w3.org/2000/svg" xmlns:xlink="http://www.w3.org/1999/xlink" x="0px" y="0px" viewBox="0 0 512 512" style="width: 16px; height: 16px; opacity: 1;" xml:space="preserve">
<g>
	<path class="st0" d="M97.564,289.536C62.99,324.106-26.45,469.611,8.125,504.189c34.582,34.587,180.087-54.861,214.661-89.439
		l101.968-101.968L199.532,187.577L97.564,289.536z" style="fill: rgb(92, 85, 80);"></path>
	<path class="st0" d="M485.75,26.572c-34.578-34.579-90.639-34.579-125.222,0l-8.36,8.36l-17.037-17.041
		C323.255,6.012,307.498-0.016,291.943,0c-15.563-0.016-31.32,6.012-43.191,17.9l-96.294,96.285
		c-8.239,8.251-8.246,21.63,0.004,29.889c8.255,8.259,21.642,8.251,29.893,0l96.285-96.285c3.73-3.714,8.419-5.49,13.302-5.507
		c4.879,0.017,9.578,1.786,13.294,5.498l17.041,17.041l-94.125,94.121l125.218,125.231l132.374-132.379
		C520.329,117.215,520.325,61.151,485.75,26.572z M300.902,181.608l-21.47-21.469l81.096-81.088l21.465,21.461L300.902,181.608z" style="fill: rgb(92, 85, 80);"></path>
</g>
</svg>
